<svg xmlns="http://www.w3.org/2000/svg" width="600" height="450" viewBox="0 0 600 450">
  <defs>
    <linearGradient id="bg" x1="0" y1="0" x2="0" y2="1">
      <stop offset="0%" stop-color="#2A2318"/>
      <stop offset="100%" stop-color="#1A1410"/>
    </linearGradient>
  </defs>
  <rect width="600" height="450" fill="url(#bg)"/>
  <rect x="20" y="20" width="560" height="410" rx="4" fill="none" stroke="#D4A017" stroke-width="0.5" opacity="0.25"/>
  <g transform="translate(300,190)" opacity="0.3">
    <ellipse cx="0" cy="40" rx="45" ry="12" fill="#D4A017"/>
    <ellipse cx="0" cy="-60" rx="20" ry="8" fill="none" stroke="#D4A017" stroke-width="3"/>
    <path d="M-20,-55 C-20,-30 -45,0 -45,30 C-45,50 -25,55 0,55 C25,55 45,50 45,30 C45,0 20,-30 20,-55" fill="none" stroke="#D4A017" stroke-width="4"/>
    <path d="M-20,-45 C-35,-35 -50,-15 -48,5" fill="none" stroke="#D4A017" stroke-width="3"/>
    <path d="M20,-45 C35,-35 50,-15 48,5" fill="none" stroke="#D4A017" stroke-width="3"/>
  </g>
  <text x="300" y="400" text-anchor="middle" font-family="Georgia, 'Times New Roman', serif" font-size="18" fill="white" opacity="0.85">Portland Vase</text>
  <text x="300" y="425" text-anchor="middle" font-family="Georgia, 'Times New Roman', serif" font-size="11" fill="#D4A017" opacity="0.5">ARCHAION MUSEUM</text>
</svg>