<svg xmlns="http://www.w3.org/2000/svg" width="600" height="450" viewBox="0 0 600 450">
  <defs>
    <linearGradient id="bg" x1="0" y1="0" x2="0" y2="1">
      <stop offset="0%" stop-color="#2A2318"/>
      <stop offset="100%" stop-color="#1A1410"/>
    </linearGradient>
  </defs>
  <rect width="600" height="450" fill="url(#bg)"/>
  <rect x="20" y="20" width="560" height="410" rx="4" fill="none" stroke="#D4A017" stroke-width="0.5" opacity="0.25"/>
  <g transform="translate(300,190)" opacity="0.3">
    <rect x="-55" y="-55" width="25" height="25" rx="2" fill="#D4A017" opacity="0.6"/>
    <rect x="-25" y="-55" width="25" height="25" rx="2" fill="#D4A017" opacity="0.3"/>
    <rect x="5" y="-55" width="25" height="25" rx="2" fill="#D4A017" opacity="0.6"/>
    <rect x="35" y="-55" width="25" height="25" rx="2" fill="#D4A017" opacity="0.3"/>
    <rect x="-55" y="-25" width="25" height="25" rx="2" fill="#D4A017" opacity="0.3"/>
    <rect x="-25" y="-25" width="25" height="25" rx="2" fill="#D4A017" opacity="0.6"/>
    <rect x="5" y="-25" width="25" height="25" rx="2" fill="#D4A017" opacity="0.3"/>
    <rect x="35" y="-25" width="25" height="25" rx="2" fill="#D4A017" opacity="0.6"/>
    <rect x="-55" y="5" width="25" height="25" rx="2" fill="#D4A017" opacity="0.6"/>
    <rect x="-25" y="5" width="25" height="25" rx="2" fill="#D4A017" opacity="0.3"/>
    <rect x="5" y="5" width="25" height="25" rx="2" fill="#D4A017" opacity="0.6"/>
    <rect x="35" y="5" width="25" height="25" rx="2" fill="#D4A017" opacity="0.3"/>
    <rect x="-55" y="35" width="25" height="25" rx="2" fill="#D4A017" opacity="0.3"/>
    <rect x="-25" y="35" width="25" height="25" rx="2" fill="#D4A017" opacity="0.6"/>
    <rect x="5" y="35" width="25" height="25" rx="2" fill="#D4A017" opacity="0.3"/>
    <rect x="35" y="35" width="25" height="25" rx="2" fill="#D4A017" opacity="0.6"/>
  </g>
  <text x="300" y="400" text-anchor="middle" font-family="Georgia, 'Times New Roman', serif" font-size="18" fill="white" opacity="0.85">Roman Mosaic of Alexander</text>
  <text x="300" y="425" text-anchor="middle" font-family="Georgia, 'Times New Roman', serif" font-size="11" fill="#D4A017" opacity="0.5">ARCHAION MUSEUM</text>
</svg>